<svg width="24" height="24" viewBox="0 0 24 24" fill="none" xmlns="http://www.w3.org/2000/svg">
<path d="M17.0001 16V18C17.0001 18.55 16.5301 19 16.0001 19H12.0001C11.4201 19 11.0001 18.55 11.0001 18V16C8.7701 14.34 8.3201 11.21 10.0001 8.99998C11.6801 6.78998 14.7701 6.33998 17.0001 7.99998C19.2301 9.65998 19.6301 12.79 18.0001 15C17.6901 15.38 17.3501 15.72 17.0001 16ZM16.0001 20H12.0001V21C12.0001 21.55 12.4201 22 13.0001 22H15.0001C15.5301 22 16.0001 21.55 16.0001 21M7.6601 15H7.0001V16C7.0001 16.55 7.4201 17 8.0001 17H9.0001V16.88C8.4401 16.33 8.0001 15.7 7.6601 15ZM13.5801 4.99998C12.4601 2.46998 9.5001 1.32998 7.0001 2.44998C4.5001 3.56998 3.3101 6.49998 4.4301 9.03998C4.7701 9.80998 5.3001 10.5 6.0001 11V13C6.0001 13.55 6.4201 14 7.0001 14H7.2801C7.0701 13.35 6.9701 12.68 7.0001 12C6.9701 8.28998 9.8701 5.20998 13.5801 4.99998Z" fill="black"/>
</svg>
