<svg width="24" height="24" viewBox="0 0 24 24" fill="none" xmlns="http://www.w3.org/2000/svg">
<path d="M0 6H24V18L19.3333 15.3333L12 14.6667L4.66667 15.3333L0 18V6Z" fill="black"/>
<ellipse cx="12" cy="6" rx="12" ry="4" fill="black"/>
<path d="M12 14.667C15.2619 14.667 18.1875 15.1081 20.2744 15.8037C21.3214 16.1527 22.1208 16.554 22.6445 16.9668C23.1756 17.3854 23.333 17.7396 23.333 18C23.333 18.2604 23.1756 18.6146 22.6445 19.0332C22.1208 19.446 21.3214 19.8473 20.2744 20.1963C18.1875 20.8919 15.2619 21.333 12 21.333C8.73808 21.333 5.81253 20.8919 3.72559 20.1963C2.67862 19.8473 1.8792 19.446 1.35547 19.0332C0.824383 18.6146 0.666992 18.2604 0.666992 18C0.666992 17.7396 0.824383 17.3854 1.35547 16.9668C1.8792 16.554 2.67862 16.1527 3.72559 15.8037C5.81253 15.1081 8.73808 14.667 12 14.667Z" stroke="black" stroke-width="1.33333"/>
<ellipse cx="12" cy="17.9999" rx="2" ry="0.666667" fill="black"/>
<ellipse cx="12" cy="15.9999" rx="0.5" ry="0.166667" fill="black"/>
<ellipse cx="6.6665" cy="17.3334" rx="0.5" ry="0.166667" fill="black"/>
<ellipse cx="9.3335" cy="19.9999" rx="0.5" ry="0.166667" fill="black"/>
<ellipse cx="14.6665" cy="19.9999" rx="0.5" ry="0.166667" fill="black"/>
<ellipse cx="17.3335" cy="17.3334" rx="0.5" ry="0.166667" fill="black"/>
</svg>
